# xmcd
#
# Track frame offsets: 
#        150
#        18302
#        36238
#        51578
#        72418
#        88102
#        108614
#        124589
#        140678
#        163047
#        179721
#        196358
#        199299
#        216040
#        240895
#        259849
#        277774
#
# Disc length: 4028 seconds
#
# Revision: 0
# Processed by: cddbd v1.5.2PL0 Copyright (c) Steve Scherf et al.
# Submitted via: ExactAudioCopy v1.2
#
DISCID=030fba11
DTITLE=Blue - 4Ever Blue
DYEAR=2005
DGENRE=Pop
TTITLE0=Get Down on It (Obi and Josh Mix)
TTITLE1=Only Words I Know (Italian Version)
TTITLE2=Quand le Rideau Tombe
TTITLE3=A Chi Mi Dice (Breathe Easy Italian Version)
TTITLE4=Made for Loving You
TTITLE5=U Make Me Wanna (Big Jay Remix)
TTITLE6=It's Alright
TTITLE7=Move On
TTITLE8=The Gift
TTITLE9=Love R.I.P
TTITLE10=Sweet Thing
TTITLE11=One Love (Live A Cappella)
TTITLE12=All Rise (Acoustic)
TTITLE13=Acoustic Session From One Love Live
TTITLE14=Best In Me - Don't Treat Me Like A Fool When Summer's Gone (L
TTITLE14=ive At Riverside)
TTITLE15=Love At First Sight
TTITLE16=4Ever Ballad 2005
EXTD=
EXTT0=
EXTT1=
EXTT2=
EXTT3=
EXTT4=
EXTT5=
EXTT6=
EXTT7=
EXTT8=
EXTT9=
EXTT10=
EXTT11=
EXTT12=
EXTT13=
EXTT14=
EXTT15=
EXTT16=
PLAYORDER=
